<svg width="26" height="20" viewBox="0 0 26 20" fill="none" xmlns="http://www.w3.org/2000/svg">
<path d="M21.6957 0H3.42522C1.53337 0 -0.000488281 1.4925 -0.000488281 3.33333V16.6667C-0.000488281 18.5075 1.53337 20 3.42522 20H21.6957C23.5875 20 25.1214 18.5075 25.1214 16.6667V3.33333C25.1214 1.4925 23.5875 0 21.6957 0ZM21.6957 2.22222C21.8267 2.22222 21.9506 2.24806 22.0677 2.2875L12.5605 9.68806L3.05325 2.2875C3.17058 2.24806 3.29419 2.22222 3.42522 2.22222H21.6957ZM21.6957 17.7778H3.42522C2.79432 17.7778 2.28332 17.2806 2.28332 16.6667V4.53417L11.847 11.9786C12.0554 12.1411 12.3081 12.2222 12.5605 12.2222C12.8128 12.2222 13.0655 12.1411 13.2739 11.9786L22.8376 4.53417V16.6667C22.8376 17.2806 22.3266 17.7778 21.6957 17.7778Z" fill="#34A58A"/>
</svg>
