<svg width="22" height="21" viewBox="0 0 22 21" fill="none" xmlns="http://www.w3.org/2000/svg">
<path d="M10.544 12.9021C8.66107 11.4391 7.39835 9.62897 6.73398 8.59876L6.23767 7.71757C6.40802 7.54098 7.70717 6.19701 8.2692 5.46846C8.9755 4.55361 7.93741 3.73504 7.93741 3.73504C7.93741 3.73504 5.01341 0.971953 4.34756 0.424256C3.68171 -0.124212 2.92141 0.185583 2.92141 0.185583C1.53518 1.05111 0.0971641 1.80468 0.0341555 5.39745C0.0529794 8.76083 2.74827 12.2176 5.65593 14.89C8.57052 17.9097 12.5649 20.9314 16.4073 20.9103C20.1667 20.8112 20.9393 19.4293 21.8299 18.0955C21.8299 18.0955 22.146 17.3663 21.5651 16.7357C20.9839 16.1053 18.0591 13.3421 18.0591 13.3421C18.0591 13.3421 17.1914 12.3593 16.2415 13.0447C15.5336 13.5559 14.2637 14.6915 13.9578 14.9668C13.9584 14.9678 11.8147 13.8894 10.544 12.9021Z" fill="#34A58A"/>
</svg>
